{"title":"FlashForward 1x19 [HDTV + AC3 + Spanish]","uid":5570383,"size":456103936,"categoryP":"video","categoryS":"hd___tv_shows","magnet":"?xt=urn:btih:34dad200c28d2b456b66530d0938147b4ea276a5&amp;dn=FlashForward+1x19+%5BHDTV+%2B+AC3+%2B+Spanish%5D&amp;tr=udp%3A%2F%2Ftracker.openbittorrent.com%3A80&amp;tr=udp%3A%2F%2Fopen.demonii.com%3A1337&amp;tr=udp%3A%2F%2Ftracker.coppersurfer.tk%3A6969&amp;tr=udp%3A%2F%2Fexodus.desync.com%3A6969","seeders":0,"leechers":0,"uploader":"fleqii","files":1,"time":1274232677,"description":"C:UsersJoelDesktopFlashForward [HDTV + AC3 + Spanish].avi\n   General\n      Complete name : C:UsersJoelDesktopFlashForward [HDTV + AC3 + Spanish].avi\n      Format : AVI\n      Format/Info : Audio Video Interleave\n      File size : 435 MiB\n      Duration : 39mn 5s\n      Overall bit rate : 1 556 Kbps\n      Writing application : VirtualDubMod 1.5.10.2 (build 2540/release)\n      Writing library : VirtualDubMod build 2540/release\n   Video #0\n      ID : 0\n      Format : MPEG-4 Visual\n      Format profile : AdvancedSimple@L5\n      Format settings, BVOP : Yes\n      Format settings, QPel : No\n      Format settings, GMC : No warppoints\n      Format settings, Matrix : Default (H.263)\n      Codec ID : XVID\n      Codec ID/Hint : XviD\n      Duration : 39mn 5s\n      Bit rate : 1 098 Kbps\n      Width : 624 pixels\n      Height : 352 pixels\n      Display aspect ratio : 16:9\n      Frame rate : 25.000 fps\n      Original frame rate : 23.976 fps\n      Resolution : 24 bits\n      Colorimetry : 4:2:0\n      Scan type : Progressive\n      Bits/(Pixel*Frame) : 0.200\n      Stream size : 307 MiB (71%)\n      Writing library : XviD 1.2.1 (UTC 2008-12-04)\n   Audio #1\n      ID : 1\n      Format : AC-3\n      Format/Info : Audio Coding 3\n      Codec ID : 2000\n      Duration : 39mn 5s\n      Bit rate mode : Constant\n      Bit rate : 448 Kbps\n      Channel(s) : 2 channels\n      Channel positions : L R\n      Sampling rate : 48.0 KHz\n      Stream size : 125 MiB (29%)\n      Alignment : Split accross interleaves\n      Interleave, duration : 40 ms (1.00 video frame)\n      Interleave, preload duration : 500 ms\n      Idioma : EspaÃƒÂ±ol","torrent":{"xt":"urn:btih:34dad200c28d2b456b66530d0938147b4ea276a5","amp;dn":"FlashForward+1x19+%5BHDTV+%2B+AC3+%2B+Spanish%5D","amp;tr":["udp%3A%2F%2Ftracker.openbittorrent.com%3A80","udp%3A%2F%2Fopen.demonii.com%3A1337","udp%3A%2F%2Ftracker.coppersurfer.tk%3A6969","udp%3A%2F%2Fexodus.desync.com%3A6969"],"infoHash":"34dad200c28d2b456b66530d0938147b4ea276a5","infoHashBuffer":{"type":"Buffer","data":[52,218,210,0,194,141,43,69,107,102,83,13,9,56,20,123,78,162,118,165]},"announce":[],"urlList":[]}}